<?xml version="1.0" standalone="no"?>
<!DOCTYPE svg PUBLIC "-//W3C//DTD SVG 20010904//EN"
 "http://www.w3.org/TR/2001/REC-SVG-20010904/DTD/svg10.dtd">
<svg version="1.0" xmlns="http://www.w3.org/2000/svg"
 width="1934.000000pt" height="1934.000000pt" viewBox="0 0 1934.000000 1934.000000"
 preserveAspectRatio="xMidYMid meet">
<metadata>
Created by potrace 1.14, written by Peter Selinger 2001-2017
</metadata>
<g transform="translate(0.000000,1934.000000) scale(0.100000,-0.100000)"
fill="#000000" stroke="none">
<path d="M9357 19334 c-1 -1 -90 -5 -197 -9 -107 -3 -211 -8 -230 -10 -19 -1
-75 -6 -124 -10 -49 -4 -96 -8 -105 -10 -9 -1 -43 -6 -76 -9 -33 -4 -67 -9
-75 -11 -8 -2 -31 -7 -50 -10 -77 -13 -229 -55 -299 -84 -178 -72 -321 -195
-391 -334 -11 -23 -25 -49 -29 -57 -28 -51 -80 -216 -96 -305 -2 -16 -7 -39
-9 -50 -2 -11 -7 -45 -11 -75 -4 -30 -9 -62 -10 -70 -10 -58 -21 -218 -31
-450 -6 -157 -9 -2225 -4 -3025 1 -137 -1 -267 -4 -287 -3 -21 -8 -53 -11 -70
-19 -126 -54 -218 -112 -295 -34 -45 -118 -99 -188 -122 -142 -47 -221 -50
-830 -37 -304 7 -3378 8 -3435 2 -19 -3 -66 -7 -104 -11 -94 -9 -228 -49 -303
-91 -137 -76 -239 -232 -267 -409 -3 -16 -8 -46 -11 -65 -15 -79 -21 -669 -10
-820 11 -147 50 -310 97 -410 28 -58 99 -158 143 -203 59 -59 137 -113 227
-155 58 -27 163 -63 178 -61 3 0 17 -4 31 -9 14 -6 43 -13 63 -16 21 -4 42 -8
46 -11 3 -2 21 -7 37 -10 17 -3 96 -21 175 -41 78 -20 150 -37 158 -39 8 -2
42 -10 75 -20 33 -9 92 -24 130 -35 387 -102 1055 -329 1345 -457 19 -8 49
-21 65 -28 209 -88 612 -285 743 -363 29 -18 55 -32 57 -32 6 0 288 -172 375
-229 177 -116 575 -410 610 -450 3 -3 23 -21 45 -40 238 -202 519 -486 711
-716 32 -38 61 -72 64 -75 3 -3 21 -25 40 -50 19 -25 37 -47 40 -50 19 -16
221 -297 307 -425 242 -364 462 -758 642 -1155 24 -52 54 -117 66 -145 66
-141 229 -543 284 -700 10 -27 33 -90 51 -140 122 -341 277 -835 399 -1274 75
-269 91 -307 165 -374 78 -71 256 -144 393 -161 28 -3 57 -8 65 -11 7 -2 36
-7 63 -11 72 -9 1124 -12 1222 -3 203 18 276 77 308 254 3 17 5 154 5 305 -1
151 -1 561 0 910 3 1103 2 1920 -4 2060 -12 273 -15 687 -5 750 45 305 181
484 421 554 161 46 313 52 858 29 319 -14 3344 -3 3420 11 19 4 62 14 95 22
33 9 67 17 77 19 32 7 144 67 183 98 112 89 195 238 219 390 3 20 9 54 12 75
9 50 9 3125 1 3182 -26 173 -54 266 -109 357 -77 129 -231 221 -413 248 -22 4
-51 8 -65 11 -27 5 -324 4 -950 -1 -836 -7 -2968 -8 -3025 -1 -169 21 -251 41
-345 84 -125 58 -204 137 -269 268 -28 58 -58 146 -67 201 -2 15 -6 37 -9 48
-21 97 -21 27 -15 3140 2 1069 0 1169 -22 1285 -13 70 -58 170 -89 199 -55 53
-142 93 -229 106 -25 4 -54 10 -65 13 -17 5 -2012 11 -2018 6z"/>
<path d="M2948 10196 c-1 -2 -41 -6 -88 -9 -101 -8 -127 -12 -194 -36 -168
-59 -281 -201 -332 -419 -18 -76 -20 -86 -30 -197 -15 -154 -6 -513 15 -607 6
-24 12 -56 15 -73 16 -86 54 -169 106 -228 42 -47 181 -127 222 -127 11 0 27
-4 37 -9 9 -5 129 -33 267 -61 296 -60 262 -53 377 -84 536 -146 973 -357
1372 -660 228 -173 425 -371 650 -651 52 -65 174 -246 239 -355 215 -357 371
-734 501 -1205 93 -339 144 -455 245 -555 160 -161 417 -235 805 -234 375 0
446 16 549 118 72 71 116 155 145 271 16 65 19 105 16 210 -2 72 -6 141 -9
155 -3 14 -8 45 -11 70 -6 52 -8 66 -36 215 -98 518 -335 1114 -652 1640 -111
184 -402 600 -493 705 -12 14 -47 55 -77 92 -155 191 -519 563 -717 734 -63
54 -117 101 -120 104 -12 13 -195 155 -300 232 -523 386 -1116 679 -1683 833
-53 14 -105 28 -115 30 -190 39 -264 52 -382 70 -54 8 -127 15 -215 21 -44 3
-85 7 -92 9 -6 2 -13 2 -15 1z"/>
<path d="M2615 6629 c-94 -18 -185 -77 -232 -153 -31 -48 -67 -149 -79 -221
-18 -105 -9 -823 11 -855 2 -4 7 -22 10 -41 10 -59 56 -184 89 -242 68 -120
173 -220 301 -286 68 -36 218 -86 285 -96 24 -4 47 -8 50 -10 3 -2 33 -6 65
-10 33 -4 71 -9 85 -12 43 -9 531 -11 605 -3 134 16 160 20 225 36 132 33 250
92 302 150 60 68 80 185 53 302 -110 470 -847 1204 -1405 1400 -134 47 -260
61 -365 41z"/>
<path d="M14529 3160 c0 -30 -1 -232 -1 -447 0 -216 -1 -393 -2 -393 -2 0 -19
24 -40 54 -83 121 -225 207 -386 233 -80 14 -261 8 -330 -10 -196 -51 -359
-183 -445 -360 -65 -135 -85 -234 -80 -407 4 -153 20 -228 69 -335 119 -258
347 -406 630 -408 162 -1 243 17 355 80 76 42 183 144 219 209 7 13 10 -25 8
-129 l-1 -148 135 3 135 3 0 1053 c0 695 -3 1052 -10 1053 -5 1 -65 2 -132 3
l-123 2 -1 -56z m-366 -795 c223 -57 371 -278 362 -538 -7 -183 -85 -333 -220
-427 -55 -38 -108 -59 -185 -74 -334 -63 -608 173 -608 523 0 105 12 161 58
256 38 80 107 160 175 205 40 27 129 60 179 67 23 3 42 6 44 8 8 7 142 -6 195
-20z"/>
<path d="M3025 3104 c-281 -45 -464 -185 -521 -399 -29 -105 -15 -256 32 -352
71 -147 208 -236 509 -330 304 -95 391 -132 459 -197 58 -55 78 -98 83 -176
21 -294 -426 -404 -827 -204 -68 34 -184 112 -227 153 -18 17 -34 31 -36 31
-5 0 -38 -60 -93 -170 l-33 -65 32 -28 c104 -92 253 -176 403 -226 91 -31 118
-37 214 -51 59 -8 275 -5 325 5 294 58 478 205 534 424 35 141 7 323 -67 421
-48 65 -126 130 -197 164 -117 57 -132 63 -352 135 -117 38 -241 84 -276 101
-124 62 -189 152 -190 260 -1 119 82 203 238 240 48 11 228 15 256 6 8 -3 30
-7 49 -10 85 -12 272 -83 355 -134 l39 -25 15 23 c17 26 101 209 101 221 0 12
-116 74 -204 109 -66 26 -163 53 -271 76 -51 11 -278 10 -350 -2z"/>
<path d="M8678 3115 c-2 -2 -25 -5 -53 -9 -94 -10 -127 -18 -215 -54 -267
-107 -388 -338 -326 -622 21 -96 140 -239 246 -294 67 -34 209 -86 430 -157
236 -75 324 -126 378 -217 23 -41 27 -57 27 -127 -1 -117 -45 -184 -156 -237
-100 -48 -247 -66 -379 -46 -179 27 -396 132 -528 258 -13 12 -27 18 -32 14
-4 -5 -33 -58 -64 -119 l-55 -110 37 -33 c146 -129 379 -236 577 -266 90 -13
285 -14 360 -1 234 39 419 161 500 329 74 156 60 393 -30 512 -104 137 -188
182 -570 309 -121 40 -244 86 -274 103 -117 64 -181 162 -174 264 8 123 94
198 268 234 29 6 214 6 224 0 4 -3 26 -8 48 -10 89 -12 338 -108 378 -147 5
-5 13 -9 18 -9 8 0 117 222 117 239 0 14 -110 74 -202 110 -66 27 -168 55
-273 76 -32 6 -272 15 -277 10z"/>
<path d="M6012 2764 c0 -107 -3 -198 -6 -201 -2 -3 -50 -5 -105 -6 -65 0 -101
-4 -102 -11 -1 -15 -1 -146 0 -174 1 -22 3 -22 106 -20 l105 3 0 -50 c1 -27 1
-230 1 -451 1 -410 5 -470 42 -557 91 -213 379 -270 660 -132 32 16 56 33 54
39 -2 6 -17 49 -32 96 -15 47 -31 89 -35 93 -4 5 -30 -1 -56 -13 -156 -71
-281 -56 -334 40 l-25 45 -1 443 -1 442 41 1 c22 0 125 0 229 0 l187 1 1 36
c0 21 1 66 2 102 l1 65 -194 2 c-107 1 -211 2 -231 2 l-36 1 -1 178 c0 97 -1
187 -1 200 -1 22 -3 22 -135 22 l-134 0 0 -196z"/>
<path d="M4750 2609 c-96 -11 -128 -18 -205 -45 -74 -25 -223 -100 -264 -133
l-24 -19 20 -33 c11 -19 36 -59 55 -90 l34 -56 83 48 c155 89 305 125 451 108
84 -10 101 -14 142 -34 83 -43 131 -98 156 -180 14 -46 22 -158 13 -173 -4 -7
-99 -11 -271 -10 -303 0 -356 -5 -459 -39 -214 -71 -322 -222 -308 -431 17
-267 219 -433 526 -432 103 0 120 2 221 26 105 26 211 89 276 164 l22 24 0
-89 c0 -50 1 -96 1 -103 1 -10 31 -12 133 -10 l132 3 -1 145 c-1 80 -2 316 -3
525 -1 209 -6 405 -11 435 -36 194 -188 344 -393 387 -81 16 -231 22 -326 12z
m461 -832 c3 -5 5 -46 4 -91 -4 -144 -75 -250 -214 -319 -130 -65 -313 -75
-428 -22 -103 47 -146 108 -147 211 -1 130 56 186 227 221 53 11 550 11 558 0z"/>
<path d="M10388 2615 c-1 -1 -28 -5 -58 -8 -82 -9 -119 -17 -184 -38 -61 -21
-205 -91 -267 -131 l-36 -23 56 -91 57 -92 65 39 c57 35 199 97 239 104 181
33 312 19 412 -44 86 -54 128 -140 131 -262 l2 -74 -279 -2 c-153 0 -298 -4
-322 -8 -24 -3 -46 -6 -49 -6 -2 0 -19 -5 -37 -10 -18 -6 -40 -12 -50 -14 -50
-11 -140 -67 -194 -120 -78 -77 -106 -144 -110 -266 -2 -49 3 -107 10 -135 44
-165 175 -289 351 -331 79 -18 239 -18 343 1 117 22 244 92 319 176 l22 25 -1
-35 c0 -19 0 -65 1 -102 l1 -68 130 0 c72 0 130 3 131 8 1 15 1 298 -1 673 -1
297 -4 399 -15 447 -44 189 -182 322 -380 366 -61 14 -277 30 -287 21z m408
-834 c9 -1 11 -139 2 -181 -9 -40 -54 -114 -94 -154 -91 -89 -209 -132 -364
-134 -80 -1 -105 3 -159 25 -35 14 -75 35 -88 47 -71 61 -100 182 -63 261 57
119 133 141 501 139 140 -1 259 -2 265 -3z"/>
<path d="M15777 2603 c-289 -49 -521 -263 -583 -538 -95 -423 93 -807 456
-930 100 -34 145 -40 295 -40 231 1 410 68 565 212 l37 34 -72 76 -73 76 -58
-45 c-195 -152 -445 -181 -652 -76 -116 59 -222 208 -247 347 l-5 29 591 1
c325 0 594 2 596 5 10 10 5 194 -7 269 -50 312 -227 516 -495 572 -105 21
-251 25 -348 8z m238 -217 c142 -18 264 -104 324 -228 35 -73 60 -186 43 -197
-6 -3 -219 -6 -474 -6 l-463 0 0 25 c-1 14 5 44 12 67 54 184 210 321 388 340
28 3 51 7 53 8 3 2 68 -2 117 -9z"/>
<path d="M11489 2582 c-3 -119 1 -1021 5 -1037 2 -11 7 -33 11 -50 47 -204
192 -349 390 -390 220 -45 463 14 594 146 32 31 90 111 103 139 8 19 10 -6 10
-167 l0 -123 134 0 134 0 1 58 c0 94 1 1416 0 1435 -1 15 -14 17 -134 16
l-134 -1 0 -402 c0 -467 -2 -483 -55 -603 -74 -167 -238 -266 -427 -258 -195
9 -319 117 -358 315 -3 14 -6 232 -7 485 l-1 460 -132 2 -133 2 -1 -27z"/>
<path d="M7010 2053 c-1 -5 -2 -47 -3 -96 l-2 -87 40 -1 c55 0 606 -1 628 0
15 1 17 12 17 96 l0 95 -340 0 c-187 0 -340 -3 -340 -7z"/>
</g>
</svg>
